<svg width="307" height="309" version="1.1" xmlns="http://www.w3.org/2000/svg">
    <path fill="rgb(0,0,0)" stroke="rgb(0,0,0)" stroke-width="1" opacity="0"
          d="M 0 0 L 307 0 L 307 309 L 0 309 L 0 0 Z M 126 14 L 120 22 L 26 228 L 27 237 L 34 239 L 130 239 L 135 254 L 141 264 L 128 271 L 123 276 L 122 280 L 124 288 L 129 290 L 138 289 L 153 280 L 170 292 L 189 298 Q 195 299 198 296 L 202 298 Q 229 296 243 280 L 262 290 Q 269 291 272 288 Q 274 284 273 276 L 255 264 Q 264 252 266 236 L 289 236 L 291 235 L 294 231 L 293 222 L 290 218 L 285 217 L 269 217 L 269 197 L 267 188 L 288 181 L 290 177 L 289 168 L 285 164 L 277 164 L 261 169 Q 254 149 238 137 L 244 129 L 244 119 L 238 114 Q 231 113 229 116 L 221 126 L 201 122 L 187 123 L 186 124 L 139 15 Q 135 13 126 14 Z "/>
    <path fill="rgb(0,0,0)" stroke="rgb(0,0,0)" stroke-width="1" opacity="0"
          d="M 122.5 84 L 149 145.5 L 144 151.5 L 143 158.5 L 141.5 160 L 138 161.5 L 135 169 L 119.5 164 L 111.5 164 L 107 167.5 L 106 176.5 L 108.5 181 L 129 188.5 Q 125.2 198.8 127 214 L 62.5 214 L 62 212.5 L 115 97.5 L 122.5 84 Z "/>
    <path fill="rgb(15,16,18)" stroke="rgb(15,16,18)" stroke-width="1" opacity="1"
          d="M 129.5 20 L 132.5 21 L 134 20.5 L 135 24 L 133 24.5 L 133.5 27 Q 135.8 27.8 135 25.5 L 136 25.5 L 138 31 L 133.5 28 L 133 29.5 L 137 32 L 137.5 34 L 138.5 32 L 141 37.5 L 140 39.5 L 142 39.5 L 156 72.5 L 155.5 74 Q 157.8 73.3 157 75.5 L 159 79.5 Q 155.2 81.3 158.5 83 L 159.5 81 L 162 87 Q 159.3 85.9 160 88.5 L 162 89.5 L 162.5 88 L 179 125.5 L 175.5 127 L 166.5 116 L 157.5 115 L 153 118.5 L 151.5 122 L 150 122.5 L 152 123 L 151 128.5 L 152 128.5 L 152.5 127 L 156 132.5 L 155.5 134 L 158 135.5 Q 158.5 140.5 154.5 141 L 153 137.5 L 153.5 136 Q 151.3 136.8 152 134.5 L 147 123.5 L 147.5 122 Q 145.3 122.8 146 120.5 L 139 104.5 L 139.5 103 Q 137.3 103.8 138 101.5 L 136 97.5 L 137 95.5 L 135 95.5 L 125 71.5 L 125.5 70 Q 123.3 70.8 124 68.5 Q 122.5 65.5 121 68.5 L 113 87 L 111 87.5 L 112 89.5 L 107 100 L 104.5 99 L 104 101 Q 106.7 99.9 106 102.5 L 75.5 167 L 74 166.5 L 75 169.5 L 51 219.5 L 104 220 Q 102 223 103 230.5 L 103.5 232 L 102.5 231 L 34.5 231 L 32 232 L 45 202 L 47 202.5 L 46 205.5 Q 45.3 207.8 47.5 207 L 49 207.5 L 48 202.5 L 48.5 201 Q 45.2 202.1 46 199.5 L 67 154 L 69 153.5 L 68 151.5 L 78.5 130 L 80 130.5 L 79 127.5 L 89 106 L 91 105.5 L 90 103.5 L 100.5 82 L 101 83.5 L 100.5 85 Q 103.5 85.9 102 81.5 L 101 79.5 L 111 58 L 113 57.5 L 112 55.5 L 129.5 20 Z M 131 23 L 130 26 L 131 27 L 133 26 L 133 24 L 131 23 Z M 131 27 L 131 29 L 133 28 L 131 27 Z M 126 29 L 128 34 L 128 31 Q 131 30 130 33 L 130 34 Q 132 35 131 33 Q 134 31 130 29 L 128 30 L 126 29 Z M 125 31 L 126 33 Q 127 30 125 31 Z M 134 31 L 134 34 Q 133 36 136 35 L 134 31 Z M 137 35 L 138 37 L 140 37 L 137 35 Z M 135 39 L 136 41 L 140 42 L 142 42 Q 140 38 135 39 Z M 122 41 L 123 43 Q 124 40 122 41 Z M 119 42 L 118 45 L 119 46 L 121 43 L 119 42 Z M 120 46 Q 117 50 121 49 L 122 50 L 120 46 Z M 143 49 L 144 51 Q 145 48 143 49 Z M 142 50 L 140 53 L 142 52 L 142 50 Z M 145 52 L 145 58 L 147 58 L 145 52 Z M 143 53 L 141 56 L 142 58 L 143 56 L 143 53 Z M 116 54 L 113 56 L 115 58 L 116 56 L 116 54 Z M 114 60 L 112 62 Q 109 61 110 64 L 112 63 Q 114 62 113 65 L 115 65 L 114 60 Z M 117 66 L 118 70 L 120 67 L 119 66 L 117 66 Z M 128 67 L 127 70 L 128 70 L 128 67 Z M 150 67 L 148 71 L 150 71 L 152 68 L 150 67 Z M 132 68 L 129 69 L 128 74 L 130 73 Q 129 69 132 70 L 132 68 Z M 153 69 L 151 73 L 153 72 L 153 69 Z M 108 71 L 107 74 L 108 74 L 108 71 Z M 132 72 Q 132 75 129 74 L 130 76 L 132 75 L 132 72 Z M 154 72 L 152 74 L 154 74 L 154 72 Z M 110 74 L 107 76 Q 109 79 111 75 L 110 74 Z M 115 76 L 113 79 L 115 78 L 115 76 Z M 131 76 L 130 78 L 132 79 L 131 76 Z M 104 77 L 105 79 Q 106 76 104 77 Z M 107 78 L 107 80 L 109 79 L 107 78 Z M 103 79 L 104 81 Q 105 78 103 79 Z M 106 79 Q 104 82 107 81 L 106 79 Z M 113 79 L 111 81 L 112 83 L 113 81 L 113 79 Z M 130 79 L 130 82 L 131 82 Q 132 78 130 79 Z M 109 82 L 110 86 L 111 84 L 109 82 Z M 138 82 L 136 84 L 138 84 L 138 82 Z M 140 82 L 139 85 L 140 85 L 140 82 Z M 133 83 L 131 85 L 133 85 L 133 83 Z M 134 84 Q 133 87 136 86 Q 137 83 134 84 Z M 157 84 Q 156 87 159 86 Q 160 83 157 84 Z M 104 86 Q 104 90 106 87 L 104 86 Z M 159 87 L 157 89 L 159 89 L 159 87 Z M 99 89 L 100 91 L 102 90 L 99 89 Z M 157 89 Q 155 92 158 91 L 157 89 Z M 136 90 L 137 92 L 136 94 L 139 96 L 138 94 L 139 92 L 136 90 Z M 161 91 L 160 93 L 164 93 L 161 91 Z M 97 95 L 98 97 Q 99 94 97 95 Z M 161 96 L 161 97 L 164 97 L 161 96 Z M 138 97 Q 136 100 139 99 L 138 97 Z M 103 98 L 101 101 L 99 102 L 101 102 L 103 104 L 102 102 L 104 99 L 103 98 Z M 95 101 L 93 104 L 95 103 L 95 101 Z M 99 103 Q 98 106 101 105 Q 102 102 99 103 Z M 102 105 L 100 107 Q 99 110 102 109 L 101 108 L 103 107 L 102 105 Z M 145 106 L 145 109 Q 148 110 147 108 L 145 106 Z M 92 107 L 91 112 L 92 112 L 92 107 Z M 142 107 L 142 109 L 142 111 L 144 113 L 146 112 L 144 109 Q 145 106 142 107 Z M 164 107 L 165 111 L 164 113 L 167 114 L 168 111 L 169 114 L 170 112 L 168 108 L 167 110 L 166 110 Q 167 106 164 107 Z M 90 111 L 89 113 L 88 112 L 86 115 L 89 115 Q 93 113 90 111 Z M 147 112 Q 144 116 148 115 L 147 112 Z M 91 114 L 90 116 L 92 117 L 91 114 Z M 95 114 L 93 116 L 94 117 L 96 116 L 97 117 Q 98 113 95 114 Z M 174 115 L 172 121 L 174 120 L 174 115 Z M 87 116 L 85 122 L 87 122 L 88 119 L 90 119 L 90 118 L 87 116 Z M 148 117 L 147 121 L 148 121 L 148 117 Z M 95 118 L 93 121 L 96 119 L 95 118 Z M 90 119 L 90 122 L 92 121 Q 93 118 90 119 Z M 93 121 L 93 126 L 93 124 Q 95 122 93 121 Z M 173 121 L 173 123 L 175 122 L 173 121 Z M 81 127 L 81 131 L 84 131 Q 86 130 85 133 L 88 135 L 86 132 Q 87 129 84 130 L 84 127 L 83 129 L 82 129 Q 83 126 81 127 Z M 88 130 L 88 133 L 90 132 L 88 130 Z M 83 131 L 82 134 L 83 134 L 83 131 Z M 80 134 L 79 136 L 82 138 L 80 134 Z M 86 135 Q 84 138 87 137 L 86 135 Z M 84 136 L 84 142 L 86 141 L 84 136 Z M 76 141 L 73 146 L 75 146 L 76 144 L 76 141 Z M 76 146 L 76 149 L 78 148 L 76 146 Z M 82 148 L 80 150 L 82 150 L 82 148 Z M 74 151 L 75 153 Q 76 150 74 151 Z M 71 152 L 72 154 Q 73 151 71 152 Z M 76 153 L 76 156 L 77 156 Q 78 152 76 153 Z M 79 153 L 79 156 Q 82 155 79 153 Z M 74 162 L 72 164 L 73 168 L 75 163 L 74 162 Z M 70 163 L 67 167 L 68 169 L 68 168 L 71 166 L 70 163 Z M 71 171 L 69 174 L 71 173 L 71 171 Z M 65 172 L 63 175 Q 65 178 66 175 L 65 172 Z M 59 175 L 57 179 L 62 178 Q 61 175 60 177 L 59 175 Z M 69 175 L 68 178 L 69 178 L 69 175 Z M 59 179 L 59 181 L 61 180 L 62 188 L 65 189 L 64 188 L 65 183 L 62 182 Q 63 177 59 179 Z M 64 179 L 63 182 L 64 182 L 64 179 Z M 66 179 L 67 181 L 69 180 L 66 179 Z M 55 182 Q 54 185 57 184 Q 58 181 55 182 Z M 55 186 L 52 190 L 55 188 L 55 186 Z M 59 186 L 57 188 L 59 188 L 59 186 Z M 57 188 L 54 191 L 57 191 L 57 188 Z M 62 188 L 59 189 L 62 193 L 62 192 L 62 190 L 62 188 Z M 52 191 Q 52 195 54 192 L 52 191 Z M 57 191 L 57 193 L 59 192 L 57 191 Z M 54 193 L 54 195 L 57 194 L 54 193 Z M 60 193 L 61 195 Q 62 192 60 193 Z M 52 195 L 50 197 L 51 198 L 54 196 L 52 195 Z M 58 195 L 55 198 Q 52 197 53 200 L 60 196 L 58 195 Z M 49 197 L 48 199 L 50 200 L 49 197 Z M 52 201 L 51 203 Q 54 202 53 205 L 55 204 L 52 201 Z M 55 201 L 57 203 Q 58 200 55 201 Z M 50 202 L 49 205 L 50 205 L 50 202 Z M 52 204 Q 50 207 53 206 L 52 204 Z M 56 204 L 55 207 L 56 207 L 56 204 Z M 51 206 L 49 209 L 51 209 L 51 206 Z M 44 208 L 41 213 L 43 213 L 44 211 Q 46 209 44 208 Z M 52 209 Q 48 211 53 213 L 54 213 L 52 209 Z M 54 209 L 55 211 Q 56 208 54 209 Z M 48 212 L 46 215 Q 48 218 49 215 L 48 212 Z M 44 213 L 43 216 L 44 216 L 44 213 Z M 46 218 L 45 220 L 43 220 Q 42 222 46 221 L 46 218 Z M 42 219 L 41 223 L 42 223 L 42 219 Z M 50 219 L 51 222 L 103 222 L 52 221 L 50 219 Z M 38 221 L 39 223 Q 40 220 38 221 Z M 47 221 L 47 223 L 49 222 L 47 221 Z M 37 223 L 38 225 Q 39 222 37 223 Z M 40 223 L 39 226 L 40 226 L 40 223 Z M 44 223 L 43 224 Q 40 223 41 226 L 46 224 L 44 223 Z M 50 223 L 50 224 Q 52 223 51 226 L 52 226 Q 53 222 50 223 Z M 54 223 L 53 226 L 56 225 L 58 226 L 102 226 L 102 223 L 61 223 L 60 225 L 59 225 L 59 223 L 56 224 L 54 223 Z M 47 224 L 44 226 L 47 226 L 49 226 L 50 226 L 47 224 Z M 37 227 L 37 228 L 102 228 L 37 227 Z "/>
    <path fill="rgb(15,16,18)" stroke="rgb(15,16,18)" stroke-width="1" opacity="1"
          d="M 162.5 120 L 164.5 123 L 162.5 120 Z "/>
    <path fill="rgb(15,16,18)" stroke="rgb(15,16,18)" stroke-width="1" opacity="1"
          d="M 233.5 120 L 231.5 123 L 233.5 120 Z "/>
    <path fill="rgb(15,16,18)" stroke="rgb(15,16,18)" stroke-width="1" opacity="1"
          d="M 157.5 122 L 158 124.5 L 157 124.5 L 157.5 122 Z "/>
    <path fill="rgb(15,16,18)" stroke="rgb(15,16,18)" stroke-width="1" opacity="1"
          d="M 238.5 122 L 239 124.5 L 238 124.5 L 238.5 122 Z "/>
    <path fill="rgb(15,16,18)" stroke="rgb(15,16,18)" stroke-width="1" opacity="1"
          d="M 166.5 125 L 167.5 127 L 166.5 125 Z "/>
    <path fill="rgb(15,16,18)" stroke="rgb(15,16,18)" stroke-width="1" opacity="1"
          d="M 229.5 125 L 228.5 127 L 229.5 125 Z "/>
    <path fill="rgb(15,16,18)" stroke="rgb(15,16,18)" stroke-width="1" opacity="1"
          d="M 237.5 126 L 236.5 128 L 237.5 126 Z "/>
    <path fill="rgb(15,16,18)" stroke="rgb(15,16,18)" stroke-width="1" opacity="1"
          d="M 194.5 128 L 201 128.5 L 194.5 129 L 194.5 128 Z "/>
    <path fill="rgb(15,16,18)" stroke="rgb(15,16,18)" stroke-width="1" opacity="1"
          d="M 169.5 129 L 170.5 131 L 169.5 129 Z "/>
    <path fill="rgb(15,16,18)" stroke="rgb(15,16,18)" stroke-width="1" opacity="1"
          d="M 226.5 129 L 224.5 132 L 226.5 129 Z "/>
    <path fill="rgb(15,16,18)" stroke="rgb(15,16,18)" stroke-width="1" opacity="1"
          d="M 234.5 130 L 233.5 132 L 234.5 130 Z "/>
    <path fill="rgb(15,16,18)" stroke="rgb(15,16,18)" stroke-width="1" opacity="1"
          d="M 164.5 134 L 165.5 136 L 164.5 134 Z "/>
    <path fill="rgb(15,16,18)" stroke="rgb(15,16,18)" stroke-width="1" opacity="1"
          d="M 231.5 134 L 230.5 136 L 231.5 134 Z "/>
    <path fill="rgb(15,16,18)" stroke="rgb(15,16,18)" stroke-width="1" opacity="1"
          d="M 166.5 138 L 165.5 140 L 166.5 138 Z "/>
    <path fill="rgb(15,16,18)" stroke="rgb(15,16,18)" stroke-width="1" opacity="1"
          d="M 229.5 138 L 230.5 140 L 229.5 138 Z "/>
    <path fill="rgb(15,16,18)" stroke="rgb(15,16,18)" stroke-width="1" opacity="1"
          d="M 162.5 141 L 160.5 144 L 162.5 141 Z "/>
    <path fill="rgb(15,16,18)" stroke="rgb(15,16,18)" stroke-width="1" opacity="1"
          d="M 233.5 141 L 236.5 145 L 233.5 141 Z "/>
    <path fill="rgb(15,16,18)" stroke="rgb(15,16,18)" stroke-width="1" opacity="1"
          d="M 240.5 148 L 243.5 152 L 240.5 148 Z "/>
    <path fill="rgb(15,16,18)" stroke="rgb(15,16,18)" stroke-width="1" opacity="1"
          d="M 154.5 149 L 152.5 152 L 154.5 149 Z "/>
    <path fill="rgb(15,16,18)" stroke="rgb(15,16,18)" stroke-width="1" opacity="1"
          d="M 245.5 154 L 246.5 156 L 245.5 154 Z "/>
    <path fill="rgb(15,16,18)" stroke="rgb(15,16,18)" stroke-width="1" opacity="1"
          d="M 149.5 157 L 152.5 161 L 149.5 157 Z "/>
    <path fill="rgb(15,16,18)" stroke="rgb(15,16,18)" stroke-width="1" opacity="1"
          d="M 249.5 160 L 250.5 162 L 249.5 160 Z "/>
    <path fill="rgb(15,16,18)" stroke="rgb(15,16,18)" stroke-width="1" opacity="1"
          d="M 156.5 163 L 157.5 165 L 156.5 163 Z "/>
    <path fill="rgb(15,16,18)" stroke="rgb(15,16,18)" stroke-width="1" opacity="1"
          d="M 144.5 165 L 147.5 169 L 144.5 165 Z "/>
    <path fill="rgb(15,16,18)" stroke="rgb(15,16,18)" stroke-width="1" opacity="1"
          d="M 159.5 165 L 160.5 167 L 159.5 165 Z "/>
    <path fill="rgb(15,16,18)" stroke="rgb(15,16,18)" stroke-width="1" opacity="1"
          d="M 243.5 168 L 244 170.5 L 243 170.5 L 243.5 168 Z "/>
    <path fill="rgb(15,16,18)" stroke="rgb(15,16,18)" stroke-width="1" opacity="1"
          d="M 113.5 170 L 112.5 172 L 113.5 170 Z "/>
    <path fill="rgb(15,16,18)" stroke="rgb(15,16,18)" stroke-width="1" opacity="1"
          d="M 282.5 170 L 283.5 172 L 282.5 170 Z "/>
    <path fill="rgb(15,16,18)" stroke="rgb(15,16,18)" stroke-width="1" opacity="1"
          d="M 242.5 172 L 241.5 174 L 242.5 172 Z "/>
    <path fill="rgb(15,16,18)" stroke="rgb(15,16,18)" stroke-width="1" opacity="1"
          d="M 190.5 176 L 195 176.5 L 190.5 177 L 190.5 176 Z "/>
    <path fill="rgb(15,16,18)" stroke="rgb(15,16,18)" stroke-width="1" opacity="1"
          d="M 201.5 176 L 206 176.5 L 201.5 177 L 201.5 176 Z "/>
    <path fill="rgb(15,16,18)" stroke="rgb(15,16,18)" stroke-width="1" opacity="1"
          d="M 185.5 185 L 188 185.5 L 185.5 186 L 185.5 185 Z "/>
    <path fill="rgb(15,16,18)" stroke="rgb(15,16,18)" stroke-width="1" opacity="1"
          d="M 208.5 185 L 211 185.5 L 208.5 186 L 208.5 185 Z "/>
    <path fill="rgb(15,16,18)" stroke="rgb(15,16,18)" stroke-width="1" opacity="1"
          d="M 133.5 196 L 134 198.5 L 133 198.5 L 133.5 196 Z "/>
    <path fill="rgb(15,16,18)" stroke="rgb(15,16,18)" stroke-width="1" opacity="1"
          d="M 262.5 196 L 263 199.5 L 262 199.5 L 262.5 196 Z "/>
    <path fill="rgb(15,16,18)" stroke="rgb(15,16,18)" stroke-width="1" opacity="1"
          d="M 196.5 197 L 200 197.5 L 196.5 198 L 196.5 197 Z "/>
    <path fill="rgb(15,16,18)" stroke="rgb(15,16,18)" stroke-width="1" opacity="1"
          d="M 132.5 206 L 133 213.5 L 132 213.5 L 132.5 206 Z "/>
    <path fill="rgb(15,16,18)" stroke="rgb(15,16,18)" stroke-width="1" opacity="1"
          d="M 263.5 208 L 264 212.5 L 263 212.5 L 263.5 208 Z "/>
    <path fill="rgb(15,16,18)" stroke="rgb(15,16,18)" stroke-width="1" opacity="1"
          d="M 262.5 220 L 263 223 L 286 223.5 L 263.5 224 Q 261 223 262.5 220 Z "/>
    <path fill="rgb(15,16,18)" stroke="rgb(15,16,18)" stroke-width="1" opacity="1"
          d="M 133.5 221 L 134 222.5 L 132.5 224 L 110.5 224 L 110.5 223 L 132.5 223 L 133.5 221 Z "/>
    <path fill="rgb(15,16,18)" stroke="rgb(15,16,18)" stroke-width="1" opacity="1"
          d="M 111.5 230 L 135 230.5 L 111.5 231 L 111.5 230 Z "/>
    <path fill="rgb(15,16,18)" stroke="rgb(15,16,18)" stroke-width="1" opacity="1"
          d="M 261.5 230 L 285 230.5 L 261.5 231 L 261.5 230 Z "/>
    <path fill="rgb(15,16,18)" stroke="rgb(15,16,18)" stroke-width="1" opacity="1"
          d="M 147.5 262 L 148.5 264 L 147.5 262 Z "/>
    <path fill="rgb(15,16,18)" stroke="rgb(15,16,18)" stroke-width="1" opacity="1"
          d="M 248.5 262 L 247.5 264 L 248.5 262 Z "/>
    <path fill="rgb(15,16,18)" stroke="rgb(15,16,18)" stroke-width="1" opacity="1"
          d="M 149.5 265 L 148.5 267 L 149.5 265 Z "/>
    <path fill="rgb(15,16,18)" stroke="rgb(15,16,18)" stroke-width="1" opacity="1"
          d="M 246.5 265 L 247.5 267 L 246.5 265 Z "/>
    <path fill="rgb(15,16,18)" stroke="rgb(15,16,18)" stroke-width="1" opacity="1"
          d="M 153.5 271 L 162 278.5 L 154.5 272 L 152.5 273 L 153.5 271 Z "/>
    <path fill="rgb(15,16,18)" stroke="rgb(15,16,18)" stroke-width="1" opacity="1"
          d="M 241.5 271 L 244 272.5 L 242.5 272 L 235.5 278 L 241.5 271 Z "/>
    <path fill="rgb(15,16,18)" stroke="rgb(15,16,18)" stroke-width="1" opacity="1"
          d="M 148.5 274 L 147.5 276 L 148.5 274 Z "/>
    <path fill="rgb(15,16,18)" stroke="rgb(15,16,18)" stroke-width="1" opacity="1"
          d="M 247.5 274 L 248.5 276 L 247.5 274 Z "/>
    <path fill="rgb(15,16,18)" stroke="rgb(15,16,18)" stroke-width="1" opacity="1"
          d="M 143.5 277 L 142.5 279 L 143.5 277 Z "/>
    <path fill="rgb(15,16,18)" stroke="rgb(15,16,18)" stroke-width="1" opacity="1"
          d="M 128.5 279 L 129 281.5 L 128 281.5 L 128.5 279 Z "/>
    <path fill="rgb(15,16,18)" stroke="rgb(15,16,18)" stroke-width="1" opacity="1"
          d="M 267.5 279 L 268 281.5 L 267 281.5 L 267.5 279 Z "/>
    <path fill="rgb(15,16,18)" stroke="rgb(15,16,18)" stroke-width="1" opacity="1"
          d="M 138.5 280 L 137.5 282 L 138.5 280 Z "/>
    <path fill="rgb(15,16,18)" stroke="rgb(15,16,18)" stroke-width="1" opacity="1"
          d="M 164.5 280 L 165.5 282 L 164.5 280 Z "/>
    <path fill="rgb(15,16,18)" stroke="rgb(15,16,18)" stroke-width="1" opacity="1"
          d="M 231.5 280 L 230.5 282 L 231.5 280 Z "/>
    <path fill="rgb(15,16,18)" stroke="rgb(15,16,18)" stroke-width="1" opacity="1"
          d="M 228.5 282 L 227.5 284 L 228.5 282 Z "/>
    <path fill="rgb(15,16,18)" stroke="rgb(15,16,18)" stroke-width="1" opacity="1"
          d="M 188.5 291 L 191 291.5 L 188.5 292 L 188.5 291 Z "/>
    <path fill="rgb(15,16,18)" stroke="rgb(15,16,18)" stroke-width="1" opacity="1"
          d="M 205.5 291 L 208 291.5 L 205.5 292 L 205.5 291 Z "/>
    <path fill="rgb(0,0,0)" stroke="rgb(0,0,0)" stroke-width="1" opacity="1"
          d="M 131.5 20 L 133 20.5 L 131 21 Q 129.9 23.7 132.5 23 L 134 22.5 L 133.5 24 Q 136.1 23.2 135 26.5 L 135.5 28 L 133.5 27 L 135.5 30 L 137 29.5 L 136.5 31 Q 139.1 30.2 138 33.5 L 137 33.5 Q 137.8 31.3 135.5 32 L 136 33.5 Q 135.2 36.1 138.5 35 L 139.5 37 L 134 35 L 133.5 33 L 132 33.5 L 133 31.5 L 131 32.5 Q 131.8 34.8 129.5 34 L 130 32.5 Q 130.7 29.9 128 31 L 127.5 34 L 126.5 31 L 125.5 33 L 124.5 31 L 126 30.5 L 125.5 29 L 127.5 30 L 129.5 29 Q 131.3 32.7 133 29.5 L 132.5 28 L 131 28.5 L 130 25.5 L 131 23.5 L 129 23.5 L 131.5 20 Z "/>
    <path fill="rgb(0,0,0)" stroke="rgb(0,0,0)" stroke-width="1" opacity="1"
          d="M 121.5 38 L 124 39.5 L 122.5 43 Q 121.3 40.8 120 43.5 L 119 45.5 L 124 48.5 L 123.5 50 L 122.5 48 L 121.5 50 L 119.5 49 L 117.5 50 L 117.5 49 Q 120.1 49.8 119 46.5 L 118 44.5 L 119 42 L 121 41.5 L 120.5 40 L 123 41 Q 124.1 38.3 121.5 39 L 121.5 38 Z "/>
    <path fill="rgb(0,0,0)" stroke="rgb(0,0,0)" stroke-width="1" opacity="1"
          d="M 140.5 38 L 141 39.5 L 140.5 41 L 142 41.5 L 139.5 42 L 134 39.5 L 137.5 39 L 140 40 L 140.5 38 Z "/>
    <path fill="rgb(0,0,0)" stroke="rgb(0,0,0)" stroke-width="1" opacity="1"
          d="M 140.5 43 L 143 43.5 L 141 47.5 L 143 46.5 L 143.5 45 L 144 46.5 L 142.5 49 L 144.5 48 L 144 49.5 L 143.5 51 L 142 50.5 L 140.5 53 L 140 51.5 L 140 47.5 L 141 44.5 L 140.5 43 Z "/>
    <path fill="rgb(0,0,0)" stroke="rgb(0,0,0)" stroke-width="1" opacity="1"
          d="M 144.5 52 L 147 57.5 L 145 58 L 144.5 52 Z "/>
    <path fill="rgb(0,0,0)" stroke="rgb(0,0,0)" stroke-width="1" opacity="1"
          d="M 114.5 53 L 116 55.5 L 115 57.5 L 115.5 59 L 112 57.5 L 114 57.5 L 113 55.5 L 115 54.5 L 114.5 53 Z "/>
    <path fill="rgb(0,0,0)" stroke="rgb(0,0,0)" stroke-width="1" opacity="1"
          d="M 142.5 53 L 143 55.5 L 141.5 58 L 141 55.5 L 142.5 53 Z "/>
    <path fill="rgb(0,0,0)" stroke="rgb(0,0,0)" stroke-width="1" opacity="1"
          d="M 149.5 59 L 150 60.5 L 149 63.5 L 150 67 L 152.5 66 L 151 68.5 L 149.5 71 L 148 70.5 L 148 68.5 L 149 65.5 L 148 63.5 L 149 60.5 L 149.5 59 Z "/>
    <path fill="rgb(0,0,0)" stroke="rgb(0,0,0)" stroke-width="1" opacity="1"
          d="M 111.5 60 L 114 60.5 L 114.5 63 L 115.5 61 L 116 62.5 L 115 64.5 Q 116.7 68.8 118.5 66 L 120 66.5 L 120 68.5 L 118.5 71 L 117 70.5 L 116.5 72 L 116 70.5 L 117 68.5 L 114.5 65 L 111.5 66 L 111.5 65 Q 114.1 65.7 113 63 L 110 64.5 L 109.5 66 L 109 64.5 L 110 62 L 112 61.5 L 111.5 60 Z "/>
    <path fill="rgb(0,0,0)" stroke="rgb(0,0,0)" stroke-width="1" opacity="1"
          d="M 124.5 66 L 128 67.5 L 127.5 70 L 126.5 67 L 125.5 69 L 124.5 66 Z "/>
    <path fill="rgb(0,0,0)" stroke="rgb(0,0,0)" stroke-width="1" opacity="1"
          d="M 131.5 68 L 132 70 Q 129 68.8 130 72.5 L 129.5 74 Q 131.8 74.8 131 72.5 L 132 72.5 Q 133.1 75.8 130.5 75 L 132 77.5 L 130.5 82 L 129 79.5 L 131 78.5 L 127.5 72 L 126 72.5 L 129 71.5 Q 127.9 68.2 130.5 69 L 131.5 68 Z "/>
    <path fill="rgb(0,0,0)" stroke="rgb(0,0,0)" stroke-width="1" opacity="1"
          d="M 152.5 69 L 153.5 72 L 155 71.5 L 154 74 L 151.5 73 L 149.5 74 L 149.5 73 Q 151.8 73.8 151 71.5 L 152.5 69 Z "/>
    <path fill="rgb(0,0,0)" stroke="rgb(0,0,0)" stroke-width="1" opacity="1"
          d="M 107.5 71 L 108 73.5 L 107.5 75 L 110.5 74 L 112.5 74 L 114 74.5 L 112 75 L 111.5 77 L 110.5 75 Q 108.8 78.1 107 76.5 Q 106.3 78.8 108.5 78 L 107 80.5 L 108.5 82 L 110 81.5 L 109.5 83 Q 112.1 83.8 111 80.5 L 114.5 76 L 116 78.5 L 113 79.5 L 111 83.5 L 111.5 85 L 110 84.5 L 109 86.5 L 111 89.5 L 109 89.5 L 110 91.5 L 108 90.5 L 109 87.5 L 109 85.5 L 106.5 81 L 104.5 82 L 102.5 79 L 104 78.5 L 103.5 77 Q 105.8 76.3 105 78.5 L 107 79.5 L 106 76.5 L 107 75.5 L 105.5 73 L 107 73.5 L 107.5 71 Z "/>
    <path fill="rgb(0,0,0)" stroke="rgb(0,0,0)" stroke-width="1" opacity="1"
          d="M 157.5 78 L 157 79.5 L 157.5 81 L 159 80.5 L 160 83.5 L 159 85.5 L 161 85.5 L 160.5 87 Q 163.1 86.2 162 89.5 L 158.5 89 L 157 89.5 L 157.5 91 Q 155.3 91.8 156 89.5 L 156 87.5 L 157 84.5 L 156.5 83 L 158.5 84 L 156 80.5 L 157.5 78 Z M 157 86 L 157 88 L 159 87 L 157 86 Z "/>
    <path fill="rgb(0,0,0)" stroke="rgb(0,0,0)" stroke-width="1" opacity="1"
          d="M 101.5 81 L 102 85 L 100 84.5 L 101.5 81 Z "/>
    <path fill="rgb(0,0,0)" stroke="rgb(0,0,0)" stroke-width="1" opacity="1"
          d="M 137.5 82 L 138 84 L 134 86 Q 132.9 83.3 135.5 84 L 137.5 82 Z "/>
    <path fill="rgb(0,0,0)" stroke="rgb(0,0,0)" stroke-width="1" opacity="1"
          d="M 139.5 82 L 140 84.5 L 139 86.5 L 139.5 88 L 138 85.5 L 139.5 82 Z "/>
    <path fill="rgb(0,0,0)" stroke="rgb(0,0,0)" stroke-width="1" opacity="1"
          d="M 132.5 83 L 133 85 L 131 84.5 L 132.5 83 Z "/>
    <path fill="rgb(0,0,0)" stroke="rgb(0,0,0)" stroke-width="1" opacity="1"
          d="M 99.5 86 L 100 87.5 L 99.5 89 L 102 89.5 L 99 91.5 L 100 93.5 L 98 92.5 L 97 90.5 L 99 90.5 L 98 88.5 L 99.5 86 Z "/>
    <path fill="rgb(0,0,0)" stroke="rgb(0,0,0)" stroke-width="1" opacity="1"
          d="M 103.5 86 L 106 86.5 Q 103.9 89.8 103.5 86 Z "/>
    <path fill="rgb(0,0,0)" stroke="rgb(0,0,0)" stroke-width="1" opacity="1"
          d="M 133.5 87 L 135.5 90 L 138.5 89 L 140 92.5 L 139 95.5 L 139.5 97 L 137 95.5 L 140 100.5 L 139 100.5 L 137 97.5 L 136 95.5 L 136 93.5 L 137 91.5 L 135.5 91 L 134 91.5 Q 136.5 90 133 88.5 L 133.5 87 Z "/>
    <path fill="rgb(0,0,0)" stroke="rgb(0,0,0)" stroke-width="1" opacity="1"
          d="M 160.5 91 L 164 92.5 L 159.5 93 L 160.5 91 Z "/>
    <path fill="rgb(0,0,0)" stroke="rgb(0,0,0)" stroke-width="1" opacity="1"
          d="M 164.5 94 L 165 95.5 L 164.5 97 L 166 97.5 L 164.5 98 L 160 96.5 L 164 96 L 164.5 94 Z "/>
    <path fill="rgb(0,0,0)" stroke="rgb(0,0,0)" stroke-width="1" opacity="1"
          d="M 96.5 95 Q 98.8 94.3 98 96.5 L 96 96.5 L 97 99.5 L 93.5 104 L 92 101.5 Q 94 103.2 96 99.5 L 95 96.5 L 96.5 95 Z "/>
    <path fill="rgb(0,0,0)" stroke="rgb(0,0,0)" stroke-width="1" opacity="1"
          d="M 99.5 96 L 101.5 99 L 103.5 98 L 105.5 101 L 104 101.5 L 104.5 103 L 103 102.5 L 104 104.5 L 101 103.5 L 103 106.5 L 101 107.5 L 101.5 109 Q 98.9 109.8 100 106.5 L 100.5 105 L 97.5 106 L 95.5 106 L 94 105.5 L 96 105 L 96.5 103 L 97 105 L 99 105 Q 97.9 102.3 100.5 103 L 100.5 102 L 99 101.5 L 101 101 L 99.5 98 L 98.5 100 L 98 98.5 L 99.5 96 Z "/>
    <path fill="rgb(0,0,0)" stroke="rgb(0,0,0)" stroke-width="1" opacity="1"
          d="M 164.5 99 L 167 99.5 L 166 101.5 L 168 101.5 L 164.5 106 L 164 103.5 L 165 100.5 L 164.5 99 Z "/>
    <path fill="rgb(0,0,0)" stroke="rgb(0,0,0)" stroke-width="1" opacity="1"
          d="M 167.5 105 L 169 107.5 L 169 109.5 L 170 111.5 L 168.5 114 L 167.5 111 L 166.5 114 L 164 112.5 L 165 110.5 L 164 107 L 167.5 105 Z M 168 106 L 166 108 L 167 110 L 168 108 L 168 106 Z "/>
    <path fill="rgb(0,0,0)" stroke="rgb(0,0,0)" stroke-width="1" opacity="1"
          d="M 144.5 106 L 146.5 107 L 148 106.5 L 147 108.5 L 148 110.5 L 147 110.5 Q 147.8 108.3 145.5 109 L 146 110.5 L 148 115 L 146 115 Q 147.5 111.3 144.5 112 L 143 112.5 L 142 110.5 L 142 108.5 Q 141.3 106.3 143.5 107 L 144.5 106 Z "/>
    <path fill="rgb(0,0,0)" stroke="rgb(0,0,0)" stroke-width="1" opacity="1"
          d="M 91.5 107 L 92 111.5 Q 89.3 113.2 93.5 115 L 97 114 L 98 117.5 L 95.5 116 L 93 117.5 L 93.5 119 L 95.5 118 L 96.5 120 Q 94.7 117.3 93 121.5 L 94.5 124 L 93 123.5 L 92.5 126 L 91.5 121 L 90 121.5 L 88.5 118 L 87 122 L 85 121.5 L 87 116 L 90 117.5 Q 89.3 120.1 92 119 L 89.5 114 L 86.5 115 L 87 113.5 L 87.5 112 L 89 112.5 L 88 110.5 L 91 111.5 L 91.5 107 Z "/>
    <path fill="rgb(0,0,0)" stroke="rgb(0,0,0)" stroke-width="1" opacity="1"
          d="M 172.5 113 Q 174.8 114.8 174 119.5 L 173.5 121 L 175.5 120 L 174 122.5 L 175 123.5 L 174.5 125 L 172 119.5 L 173 115.5 L 172.5 113 Z "/>
    <path fill="rgb(0,0,0)" stroke="rgb(0,0,0)" stroke-width="1" opacity="1"
          d="M 147.5 117 L 148 120.5 L 147 120.5 L 147.5 117 Z "/>
    <path fill="rgb(0,0,0)" stroke="rgb(0,0,0)" stroke-width="1" opacity="1"
          d="M 160.5 120 L 166 124.5 L 172 134 L 189.5 129 L 206.5 129 L 222.5 134 L 234.5 120 L 238 121 L 238 125.5 L 229 138.5 L 240 147.5 Q 251.7 159.6 257 177 L 281.5 170 Q 284.5 170.5 284 174.5 L 280.5 177 L 260 183 L 263 200.5 L 263 219.5 L 262 222.5 L 263.5 224 L 286.5 224 L 288 225.5 Q 288.8 229.3 286.5 230 L 261.5 230 L 261 232.5 Q 256.7 252.2 246 265.5 L 267 278.5 Q 268 283 265.5 284 L 257.5 281 L 241.5 271 Q 234.2 280.2 223.5 286 L 213.5 290 L 203 292 L 203 200.5 L 199.5 197 Q 193.8 196.3 193 200.5 L 193 291.5 L 191.5 292 L 172.5 286 L 153.5 271 L 136.5 282 L 130.5 284 Q 128 283 129 278.5 L 150 265.5 Q 138.4 251.4 135 230 L 109.5 230 L 108 228.5 Q 107.3 224.8 109.5 224 L 132.5 224 L 134 222.5 L 133 220.5 L 133 199.5 L 136 183 L 115.5 177 L 112 174.5 Q 111.5 170.5 114.5 170 L 139 177 L 143.5 165 Q 156.3 178.2 176.5 184 L 185.5 186 L 210.5 186 Q 230.3 182.8 243 172.5 L 244 168.5 Q 243 164 236.5 165 L 218.5 174 L 210.5 176 L 195.5 177 L 194.5 176 L 185.5 176 L 171.5 172 Q 157.6 166.9 149 156.5 L 159.5 144 L 167 138.5 L 159 127.5 L 158 121 L 160.5 120 Z "/>
    <path fill="rgb(0,0,0)" stroke="rgb(0,0,0)" stroke-width="1" opacity="1"
          d="M 150.5 122 L 152 122.5 L 150 123.5 L 150.5 125 L 148 124.5 L 150.5 122 Z "/>
    <path fill="rgb(0,0,0)" stroke="rgb(0,0,0)" stroke-width="1" opacity="1"
          d="M 82.5 123 L 84 125.5 L 84 127.5 L 84 130 Q 86.7 128.9 86 131.5 L 88 132.5 L 87 130.5 L 88.5 130 L 90.5 130 L 92 130.5 L 90 131.5 L 90.5 133 Q 89.3 130.8 88 133.5 L 87.5 135 L 85 133.5 L 87 136.5 L 85 137 Q 84.3 140.4 87 141.5 L 83.5 147 L 84 145.5 L 85 142.5 L 83 136.5 L 85 136.5 L 84 133.5 L 85 131 Q 82 129.8 83 133.5 Q 79.5 135 82 136.5 L 81.5 138 L 79 137.5 L 79 135.5 L 79.5 134 Q 80.8 136.3 82 133.5 L 81.5 131 L 80.5 133 L 79 129.5 L 80 129.5 L 80.5 131 L 81 128.5 L 80.5 127 L 82 126.5 L 81.5 125 L 83 125.5 L 82.5 123 Z "/>
    <path fill="rgb(0,0,0)" stroke="rgb(0,0,0)" stroke-width="1" opacity="1"
          d="M 151.5 126 L 152 128.5 L 152 130.5 L 151.5 132 L 150 129.5 L 151.5 126 Z "/>
    <path fill="rgb(0,0,0)" stroke="rgb(0,0,0)" stroke-width="1" opacity="1"
          d="M 153.5 131 L 154 132.5 L 152 133.5 L 153.5 131 Z "/>
    <path fill="rgb(0,0,0)" stroke="rgb(0,0,0)" stroke-width="1" opacity="1"
          d="M 155.5 133 L 155 134.5 L 156 137.5 L 154 138.5 L 155 136.5 L 153 136.5 L 155.5 133 Z "/>
    <path fill="rgb(0,0,0)" stroke="rgb(0,0,0)" stroke-width="1" opacity="1"
          d="M 77.5 135 L 78 136.5 L 75 140.5 L 76 143.5 L 75 146 L 77.5 147 L 80.5 146 L 82 146.5 L 80 147 L 80.5 149 L 82 148.5 Q 82.8 150.8 80.5 150 Q 79.3 147.7 78 150.5 L 77.5 152 L 77 150.5 L 79 147.5 L 76 149.5 L 75 153 Q 78 151.8 77 155.5 L 78 155.5 L 79.5 151 L 81 153.5 Q 77.9 155.2 79.5 157 L 78 156.5 L 79 158.5 L 77 158.5 L 78 160.5 L 76 159.5 L 77 156.5 L 71.5 149 L 70 149.5 L 75 141.5 L 75 139.5 L 77.5 135 Z M 74 146 L 72 149 L 74 148 L 73 150 Q 72 152 75 151 L 76 148 L 74 146 Z "/>
    <path fill="rgb(0,0,0)" stroke="rgb(0,0,0)" stroke-width="1" opacity="1"
          d="M 69.5 151 L 72 152 L 71.5 154 L 69.5 151 Z "/>
    <path fill="rgb(0,0,0)" stroke="rgb(0,0,0)" stroke-width="1" opacity="1"
          d="M 67.5 156 L 68 157.5 L 65.5 161 L 66 159.5 L 67.5 156 Z "/>
    <path fill="rgb(0,0,0)" stroke="rgb(0,0,0)" stroke-width="1" opacity="1"
          d="M 67.5 161 L 71 166 L 68 167.5 L 66.5 170 L 65 169.5 L 67 169 L 69 163.5 L 67 163.5 L 67.5 161 Z "/>
    <path fill="rgb(0,0,0)" stroke="rgb(0,0,0)" stroke-width="1" opacity="1"
          d="M 64.5 162 L 65 163.5 L 63.5 166 L 63 164.5 L 64.5 162 Z "/>
    <path fill="rgb(0,0,0)" stroke="rgb(0,0,0)" stroke-width="1" opacity="1"
          d="M 71.5 162 L 73.5 162 L 75 162.5 L 72.5 168 L 71.5 162 Z "/>
    <path fill="rgb(0,0,0)" stroke="rgb(0,0,0)" stroke-width="1" opacity="1"
          d="M 65.5 165 L 66 166.5 L 63.5 170 L 62 167.5 L 65 166.5 L 65.5 165 Z "/>
    <path fill="rgb(0,0,0)" stroke="rgb(0,0,0)" stroke-width="1" opacity="1"
          d="M 69.5 168 L 70 169.5 L 68 170.5 L 69.5 168 Z "/>
    <path fill="rgb(0,0,0)" stroke="rgb(0,0,0)" stroke-width="1" opacity="1" d="M 61.5 170 L 60.5 172 L 61.5 170 Z "/>
    <path fill="rgb(0,0,0)" stroke="rgb(0,0,0)" stroke-width="1" opacity="1"
          d="M 71.5 170 L 72.5 172 L 71 171.5 L 72 173.5 L 69.5 174 L 68 173.5 L 71.5 170 Z "/>
    <path fill="rgb(0,0,0)" stroke="rgb(0,0,0)" stroke-width="1" opacity="1"
          d="M 64.5 172 L 66 174.5 Q 64.5 177.5 63 174.5 L 64.5 172 Z "/>
    <path fill="rgb(0,0,0)" stroke="rgb(0,0,0)" stroke-width="1" opacity="1"
          d="M 58.5 175 L 59.5 177 L 60.5 176 L 63.5 179 L 64.5 178 L 69 179.5 L 66 181.5 L 64 187.5 L 64.5 189 L 62.5 188 L 62 189.5 L 62 191.5 L 57.5 198 L 53 200 Q 51.9 197.3 54.5 198 L 60 194.5 L 59.5 193 L 61 192.5 L 59.5 191 L 55.5 195 L 51 197.5 L 52 199.5 Q 49.8 200.8 52.5 202 L 57 201 L 58 203.5 L 56.5 203 L 55 203.5 L 56 206.5 L 55 206.5 L 54.5 204 Q 51.8 205.2 54 206.5 L 53 208.5 L 55 209 L 54.5 211 L 53 210.5 L 54 212.5 L 52.5 213 Q 48.8 211 50.5 209 L 46 207 Q 44.9 209.7 47.5 209 L 47.5 210 L 45.5 209 L 43 212.5 L 44 215.5 L 43.5 218 L 39 217.5 L 41.5 214 L 42.5 216 L 43 213 L 41 212.5 L 43.5 208 L 45 208.5 L 44 206.5 L 46 206.5 L 47 204.5 L 46.5 201 L 50 202.5 L 49.5 205 L 48.5 202 L 48 205.5 L 49.5 208 L 51.5 204 L 53 204.5 L 51 201.5 Q 49 197.8 47 199.5 L 48.5 197 L 50 197.5 L 49 195.5 L 51.5 195 Q 55.3 196 54 193 L 57 193 L 57 191 Q 52.7 190.2 51.5 194 L 51.5 191 L 53.5 191 L 59 185.5 L 58 183.5 L 61 182.5 L 60.5 180 L 59 180.5 L 57 177.5 L 58.5 175 Z M 60 178 L 60 179 L 62 179 L 60 178 Z M 63 179 L 62 182 L 63 182 L 63 179 Z M 64 179 L 63 183 L 65 183 L 66 181 Q 67 178 64 179 Z M 62 183 L 61 185 L 61 187 L 59 187 Q 60 189 57 188 L 57 191 Q 60 192 59 189 L 62 188 L 62 183 Z M 51 206 L 51 209 L 53 208 Q 54 205 51 206 Z "/>
    <path fill="rgb(0,0,0)" stroke="rgb(0,0,0)" stroke-width="1" opacity="1"
          d="M 68.5 175 L 69 177.5 L 68 177.5 L 68.5 175 Z "/>
    <path fill="rgb(0,0,0)" stroke="rgb(0,0,0)" stroke-width="1" opacity="1"
          d="M 57.5 180 L 58 181.5 L 57 184 L 54.5 185 L 55 183.5 L 57.5 180 Z "/>
    <path fill="rgb(0,0,0)" stroke="rgb(0,0,0)" stroke-width="1" opacity="1"
          d="M 54.5 186 L 55 187.5 L 52 189.5 L 54.5 186 Z "/>
    <path fill="rgb(0,0,0)" stroke="rgb(0,0,0)" stroke-width="1" opacity="1"
          d="M 47.5 212 L 49 214.5 Q 47.5 217.5 46 214.5 L 47.5 212 Z "/>
    <path fill="rgb(0,0,0)" stroke="rgb(0,0,0)" stroke-width="1" opacity="1"
          d="M 51.5 216 L 51 217.5 L 50 219.5 L 51.5 221 L 103 221.5 L 50.5 222 L 49.5 221 L 47 222.5 L 49 219.5 L 51.5 216 Z "/>
    <path fill="rgb(0,0,0)" stroke="rgb(0,0,0)" stroke-width="1" opacity="1"
          d="M 45.5 218 L 46 221 Q 42.3 222.5 43 219.5 L 45 219.5 L 45.5 218 Z "/>
    <path fill="rgb(0,0,0)" stroke="rgb(0,0,0)" stroke-width="1" opacity="1"
          d="M 41.5 219 L 42 222.5 L 41 222.5 L 41.5 219 Z "/>
    <path fill="rgb(0,0,0)" stroke="rgb(0,0,0)" stroke-width="1" opacity="1"
          d="M 37.5 221 Q 39.8 220.3 39 222.5 L 40 225.5 L 39 225.5 L 38.5 223 L 36.5 226 L 35 225.5 L 37 224.5 L 36.5 223 L 38 222.5 L 37.5 221 Z "/>
    <path fill="rgb(0,0,0)" stroke="rgb(0,0,0)" stroke-width="1" opacity="1"
          d="M 43.5 223 L 48.5 224 L 52 223 L 51.5 226 L 51 224 L 49 224.5 L 49.5 226 L 47.5 225 L 44.5 226 L 42.5 226 Q 39.9 226.7 41 224 L 43.5 223 Z "/>
    <path fill="rgb(0,0,0)" stroke="rgb(0,0,0)" stroke-width="1" opacity="1"
          d="M 53.5 223 L 55.5 224 L 58.5 223 L 58.5 225 L 60 225 L 60.5 223 L 102 223 L 101.5 226 L 57.5 226 L 55.5 225 L 53 226 L 53.5 223 Z "/>
    <path fill="rgb(0,0,0)" stroke="rgb(0,0,0)" stroke-width="1" opacity="1"
          d="M 36.5 227 L 102 227.5 L 36.5 228 L 36.5 227 Z "/>
    <path fill="rgb(0,0,0)" stroke="rgb(0,0,0)" stroke-width="1" opacity="1" d="M 34.5 228 L 35.5 230 L 34.5 228 Z "/>
    <path fill="rgb(0,0,0)" stroke="rgb(0,0,0)" stroke-width="1" opacity="1"
          d="M 34.5 231 L 103 231.5 L 34.5 232 L 34.5 231 Z "/>
    <path fill="rgb(247,247,247)" stroke="rgb(247,247,247)" stroke-width="1" opacity="0.9411764705882353"
          d="M 125.5 14 Q 135.1 12.6 139 15 L 185.5 124 L 186.5 123 L 200.5 122 L 220.5 126 L 228.5 116 Q 231.4 113.4 237.5 114 L 244 118.5 L 244 128.5 L 238 136.5 Q 253.9 148.8 261 169 L 276.5 164 L 284.5 164 L 289 167.5 L 290 176.5 L 288 181 L 267 188 L 269 196.5 L 269 217 L 284.5 217 L 289.5 218 L 293 221.5 L 294 230.5 L 290.5 235 L 288.5 236 L 266 236 Q 263.6 252.4 255 263.5 L 273 275.5 Q 274.3 284.4 272 288 Q 268.8 290.6 261.5 290 L 242.5 280 Q 228.9 295.9 201.5 298 L 197.5 296 Q 195.2 299.2 188.5 298 L 169.5 292 L 152.5 280 L 137.5 289 L 128.5 290 L 124 288 L 122 279.5 L 123 275.5 L 127.5 271 L 141 263.5 L 135 253.5 L 129.5 239 L 33.5 239 L 27 236.5 L 26 227.5 L 120 21.5 L 125.5 14 Z M 130 20 L 122 34 L 32 231 L 33 232 L 104 232 L 103 231 Q 102 223 104 220 L 51 220 L 123 67 L 154 141 L 158 138 L 152 127 L 153 119 L 158 115 L 167 116 L 176 127 L 179 126 L 134 22 Q 135 18 130 20 Z M 123 84 L 115 98 L 62 213 L 63 214 L 127 214 Q 125 199 129 189 L 109 181 L 106 177 L 107 168 L 112 164 L 120 164 L 135 169 L 138 162 L 142 160 L 143 159 L 144 152 L 149 146 L 123 84 Z M 160 120 L 157 123 L 158 127 L 167 138 L 163 141 Q 153 147 149 158 Q 158 167 171 172 L 191 177 Q 221 178 238 165 L 242 166 Q 244 167 243 172 L 240 175 L 228 181 L 208 186 L 189 186 L 175 183 L 157 175 L 143 165 L 138 177 L 119 170 L 114 170 Q 111 171 112 176 L 136 184 L 134 191 L 133 206 L 132 207 L 133 223 L 111 223 L 110 224 Q 106 223 108 229 L 112 231 L 135 231 Q 138 251 149 266 L 128 280 Q 128 284 131 284 L 138 282 L 154 272 Q 168 288 193 292 L 193 202 L 194 200 Q 195 197 201 198 L 203 203 L 203 291 L 203 292 Q 228 288 242 272 L 263 284 L 266 284 Q 269 284 268 280 L 247 266 Q 258 251 261 231 L 285 231 L 287 230 Q 289 229 288 226 L 286 223 L 263 223 L 263 214 L 264 213 L 263 197 L 260 184 L 280 178 L 284 175 Q 285 171 283 170 L 278 170 L 259 177 L 251 162 L 244 152 L 229 138 L 238 127 L 239 123 Q 238 119 234 120 L 223 134 L 213 130 L 202 129 L 201 128 L 188 129 L 174 134 L 165 123 Q 164 119 160 120 Z "/>
</svg>